<?xml version="1.0" standalone="no"?><!DOCTYPE svg PUBLIC "-//W3C//DTD SVG 1.1//EN" "http://www.w3.org/Graphics/SVG/1.1/DTD/svg11.dtd"><svg t="1747016366598" class="icon" viewBox="0 0 1024 1024" version="1.1" xmlns="http://www.w3.org/2000/svg" p-id="2793" xmlns:xlink="http://www.w3.org/1999/xlink" width="200" height="200"><path d="M832 992H192a160 160 0 0 1-160-160V192a160 160 0 0 1 160-160h640a160 160 0 0 1 160 160v640a160 160 0 0 1-160 160zM192 96a96 96 0 0 0-96 96v640a96 96 0 0 0 96 96h640a96 96 0 0 0 96-96V192a96 96 0 0 0-96-96z" fill="#ffffff" p-id="2794"></path></svg>